<svg width="17" height="18" viewBox="0 0 17 18" fill="none" xmlns="http://www.w3.org/2000/svg">
    <circle cx="7.12111" cy="7.886" r="5.65236" fill="white" />
    <path fill-rule="evenodd" clip-rule="evenodd" d="M4.625 7.38599H9.625V8.38599H4.625V7.38599Z" fill="#aba8a8" />
    <path fill-rule="evenodd" clip-rule="evenodd"
        d="M12.2104 7.88602C12.2104 10.6959 9.93255 12.9737 7.12272 12.9737C4.31288 12.9737 2.03506 10.6959 2.03506 7.88602C2.03506 5.07619 4.31288 2.79837 7.12272 2.79837C9.93255 2.79837 12.2104 5.07619 12.2104 7.88602ZM11.4546 13.5405C10.2543 14.4614 8.75245 15.0087 7.12272 15.0087C3.18895 15.0087 0 11.8198 0 7.88602C0 3.95225 3.18895 0.763306 7.12272 0.763306C11.0565 0.763306 14.2454 3.95225 14.2454 7.88602C14.2454 9.51561 13.6982 11.0174 12.7774 12.2176L16.4736 15.9138L15.1507 17.2366L11.4546 13.5405Z"
        fill="#aba8a8" />
</svg>