<svg viewBox="0 0 5 10" fill="none" xmlns="http://www.w3.org/2000/svg">
    <mask id="path-1-inside-1_896_3988" fill="white">
        <path fill-rule="evenodd" clip-rule="evenodd"
            d="M0.713934 10C0.552503 10 0.390359 9.94571 0.256786 9.83428C-0.0460752 9.58214 -0.08679 9.13142 0.165356 8.82856L3.36254 4.99208L0.280357 1.16203C0.0332114 0.854887 0.0817835 0.404882 0.38893 0.157737C0.696791 -0.0894091 1.14608 -0.0408368 1.39394 0.26631L4.84256 4.55207C5.05541 4.81708 5.05256 5.19565 4.8347 5.45708L1.26323 9.74285C1.1218 9.91214 0.918936 10 0.713934 10Z" />
    </mask>
    <path
        d="M0.256786 9.83428L1.21767 8.68245L1.21653 8.6815L0.256786 9.83428ZM0.165356 8.82856L-0.986959 7.86826L-0.987422 7.86882L0.165356 8.82856ZM3.36254 4.99208L4.51485 5.95238L5.30129 5.00869L4.53114 4.05167L3.36254 4.99208ZM0.280357 1.16203L-0.88829 2.10239L-0.888241 2.10245L0.280357 1.16203ZM0.38893 0.157737L-0.550098 -1.01198L-0.551423 -1.01091L0.38893 0.157737ZM1.39394 0.26631L2.56258 -0.674055L2.56126 -0.67569L1.39394 0.26631ZM4.84256 4.55207L6.01201 3.61273L6.01119 3.61171L4.84256 4.55207ZM4.8347 5.45708L3.68237 4.49681L3.68237 4.49681L4.8347 5.45708ZM1.26323 9.74285L2.41436 10.7046L2.41556 10.7031L1.26323 9.74285ZM0.713934 8.5C0.890193 8.5 1.0714 8.56044 1.21767 8.68246L-0.704097 10.9861C-0.290684 11.331 0.214814 11.5 0.713934 11.5V8.5ZM1.21653 8.6815C1.55172 8.96057 1.59488 9.45589 1.31813 9.7883L-0.987422 7.86882C-1.76846 8.80694 -1.64387 10.2037 -0.702956 10.9871L1.21653 8.6815ZM1.31767 9.78885L4.51485 5.95238L2.21022 4.03178L-0.986959 7.86826L1.31767 9.78885ZM4.53114 4.05167L1.44896 0.221619L-0.888241 2.10245L2.19394 5.9325L4.53114 4.05167ZM1.449 0.22168C1.72086 0.559541 1.66798 1.05385 1.32928 1.32638L-0.551423 -1.01091C-1.50441 -0.244085 -1.65444 1.15023 -0.88829 2.10239L1.449 0.22168ZM1.32796 1.32745C0.99108 1.59789 0.498171 1.54481 0.226622 1.20831L2.56126 -0.67569C1.79399 -1.62648 0.402502 -1.77671 -0.550097 -1.01198L1.32796 1.32745ZM0.225304 1.20667L3.67392 5.49244L6.01119 3.61171L2.56258 -0.674055L0.225304 1.20667ZM3.6731 5.49142C3.43996 5.20117 3.44208 4.78515 3.68237 4.49681L5.98703 6.41736C6.66303 5.60616 6.67087 4.43299 6.01201 3.61273L3.6731 5.49142ZM3.68237 4.49681L0.110894 8.78258L2.41556 10.7031L5.98703 6.41736L3.68237 4.49681ZM0.11209 8.78114C0.265979 8.59694 0.490774 8.5 0.713934 8.5V11.5C1.3471 11.5 1.97761 11.2273 2.41436 10.7046L0.11209 8.78114Z"
        fill="#BEC0C6" mask="url(#path-1-inside-1_896_3988)" />
</svg>