<svg width="13" height="12" viewBox="0 0 13 12" fill="none" xmlns="http://www.w3.org/2000/svg">
<path d="M1.5 5.25C1.08579 5.25 0.75 5.58579 0.75 6C0.75 6.41421 1.08579 6.75 1.5 6.75V5.25ZM12.0303 6.53033C12.3232 6.23744 12.3232 5.76256 12.0303 5.46967L7.25736 0.696699C6.96447 0.403806 6.48959 0.403806 6.1967 0.696699C5.90381 0.989593 5.90381 1.46447 6.1967 1.75736L10.4393 6L6.1967 10.2426C5.90381 10.5355 5.90381 11.0104 6.1967 11.3033C6.48959 11.5962 6.96447 11.5962 7.25736 11.3033L12.0303 6.53033ZM1.5 6.75H11.5V5.25H1.5V6.75Z" fill="#EF7300"/>
</svg>
