<svg viewBox="0 0 24 24" fill="none" xmlns="http://www.w3.org/2000/svg">
    <circle cx="11.1231" cy="10.886" r="5.65236" fill="white" />
    <path fill-rule="evenodd" clip-rule="evenodd"
        d="M10.623 11.386V13.386H11.623V11.386H13.623V10.386H11.623V8.38599H10.623V10.386H8.62305V11.386H10.623Z"
        fill="#667085" />
    <path fill-rule="evenodd" clip-rule="evenodd"
        d="M16.2104 10.886C16.2104 13.6959 13.9326 15.9737 11.1227 15.9737C8.31288 15.9737 6.03506 13.6959 6.03506 10.886C6.03506 8.07619 8.31288 5.79837 11.1227 5.79837C13.9326 5.79837 16.2104 8.07619 16.2104 10.886ZM15.4546 16.5405C14.2543 17.4614 12.7524 18.0087 11.1227 18.0087C7.18895 18.0087 4 14.8198 4 10.886C4 6.95225 7.18895 3.76331 11.1227 3.76331C15.0565 3.76331 18.2454 6.95225 18.2454 10.886C18.2454 12.5156 17.6982 14.0174 16.7774 15.2176L20.4736 18.9138L19.1507 20.2366L15.4546 16.5405Z"
        fill="#667085" />
</svg>