<svg width="24" height="24" viewBox="0 0 24 24" fill="none" xmlns="http://www.w3.org/2000/svg">
    <path fill-rule="evenodd" clip-rule="evenodd"
        d="M17.39 4.22182L11.5563 10.0555L5.72272 4.22182C5.18505 3.68416 4.31487 3.68513 3.77817 4.22182C3.24148 4.75852 3.24051 5.6287 3.77817 6.16637L9.61181 12L3.77818 17.8336C3.24148 18.3703 3.24051 19.2405 3.77818 19.7782C4.31584 20.3158 5.18603 20.3149 5.72272 19.7782L11.5563 13.9445L17.39 19.7782C17.9276 20.3158 18.7978 20.3149 19.3345 19.7782C19.8712 19.2415 19.8722 18.3713 19.3345 17.8336L13.5009 12L19.3345 6.16637C19.8712 5.62967 19.8722 4.75949 19.3345 4.22182C18.7969 3.68416 17.9267 3.68513 17.39 4.22182Z"
        fill="white" />
</svg>