<svg width="24" height="25" viewBox="0 0 24 25" fill="none" xmlns="http://www.w3.org/2000/svg">
<path d="M7.68043 1.48438C4.24002 1.48438 1.44043 4.28397 1.44043 7.72438V16.3644C1.44043 19.8048 4.24002 22.6044 7.68043 22.6044H16.3204C19.7608 22.6044 22.5604 19.8048 22.5604 16.3644V7.72438C22.5604 4.28397 19.7608 1.48438 16.3204 1.48438H7.68043ZM7.68043 2.44438H16.3204C19.2419 2.44438 21.6004 4.80286 21.6004 7.72438V16.3644C21.6004 19.2859 19.2419 21.6444 16.3204 21.6444H7.68043C4.75892 21.6444 2.40043 19.2859 2.40043 16.3644V7.72438C2.40043 4.80286 4.75892 2.44438 7.68043 2.44438ZM17.7604 5.32438C17.5058 5.32438 17.2616 5.42552 17.0816 5.60555C16.9016 5.78559 16.8004 6.02977 16.8004 6.28438C16.8004 6.53898 16.9016 6.78316 17.0816 6.9632C17.2616 7.14323 17.5058 7.24438 17.7604 7.24438C18.015 7.24438 18.2592 7.14323 18.4393 6.9632C18.6193 6.78316 18.7204 6.53898 18.7204 6.28438C18.7204 6.02977 18.6193 5.78559 18.4393 5.60555C18.2592 5.42552 18.015 5.32438 17.7604 5.32438ZM12.0004 6.76438C9.09005 6.76438 6.72043 9.134 6.72043 12.0444C6.72043 14.9548 9.09005 17.3244 12.0004 17.3244C14.9108 17.3244 17.2804 14.9548 17.2804 12.0444C17.2804 9.134 14.9108 6.76438 12.0004 6.76438ZM12.0004 7.72438C14.392 7.72438 16.3204 9.65282 16.3204 12.0444C16.3204 14.4359 14.392 16.3644 12.0004 16.3644C9.60887 16.3644 7.68043 14.4359 7.68043 12.0444C7.68043 9.65282 9.60887 7.72438 12.0004 7.72438Z" fill="#667085"/>
</svg>
