<svg width="240" height="56" viewBox="0 0 240 56" fill="none" xmlns="http://www.w3.org/2000/svg">
<path d="M11.8928 43.6298H0.43948V42.8776H2.04574L2.11558 27.0805H0.299805L0.369642 26.3282H6.23599V27.0805H4.55989V42.8776H6.86453C10.1469 42.8776 11.404 41.1223 11.5436 36.9432L12.1722 37.1104L11.8928 43.6298Z" fill="#23252C"/>
<path d="M29.7024 27.0806C28.7247 27.0806 28.2359 27.0806 28.2359 28.0836L28.166 39.5344C28.166 41.9583 26.9089 44.0478 23.3472 44.0478C20.9728 44.0478 18.0396 42.7105 17.3412 40.0359C17.1317 39.2001 17.2714 34.6866 17.2714 34.1016V27.1642H15.3159L15.3858 26.412H21.3219V27.1642H19.576V34.4359C19.576 37.2777 19.576 39.8687 19.7855 40.7046C20.2045 42.5434 21.741 43.2956 23.2774 43.2956C26.0011 43.2956 27.4676 42.0419 27.4676 39.3672V29.9224C27.4676 29.3374 27.4676 28 27.3978 27.5821C27.2581 27.1642 27.1185 27.1642 26.0011 27.1642H25.3027L25.3725 26.412H29.6326L29.7024 27.0806Z" fill="#23252C"/>
<path d="M44.9269 27.2478H44.6476C44.019 27.2478 43.7397 27.3314 43.5302 27.8329L40.8763 34.1016L44.3682 42.8777H45.6951L45.765 43.63H40.4573V42.8777H42.0636L39.5494 36.5255L37.1749 41.1225C37.0353 41.4568 36.6861 42.2927 36.6861 42.5434C36.7559 42.7942 36.9654 42.8777 37.4543 42.8777H38.0828V43.63H33.9624L33.8926 42.8777C35.3592 42.8777 35.5687 42.8777 35.9877 41.8748L39.0606 35.6061L35.6385 27.3314H33.9624L34.0323 26.5792H39.3399V27.3314H38.013L40.3875 33.2658L42.2731 28.6687C42.3429 28.418 42.6223 27.9165 42.5524 27.6658C42.4128 27.1643 41.9937 27.2478 41.5747 27.2478H40.8763V26.4956H44.8571V27.2478H44.9269Z" fill="#23252C"/>
<path d="M64.9002 27.0806C63.9225 27.0806 63.4336 27.0806 63.4336 28.0836L63.3638 39.5344C63.3638 41.9583 62.1067 44.0478 58.545 44.0478C56.1705 44.0478 53.2373 42.7105 52.539 40.0359C52.3294 39.2001 52.4691 34.6866 52.4691 34.1016V27.1642H50.5137L50.5835 26.412H56.5197V27.1642H54.7738V34.4359C54.7738 37.2777 54.7738 39.8687 54.9833 40.7046C55.4023 42.5434 56.9387 43.2956 58.4752 43.2956C61.1988 43.2956 62.6654 42.0419 62.6654 39.3672V29.9224C62.6654 29.3374 62.6654 28 62.5956 27.5821C62.4559 27.1642 62.3162 27.1642 61.1988 27.1642H60.5004L60.5703 26.412H64.8304L64.9002 27.0806Z" fill="#23252C"/>
<path d="M75.3757 27.0805C77.6105 27.0805 77.6803 29.17 77.6803 30.8417C77.6803 32.6805 77.1216 34.4357 75.655 34.4357H73.4901L73.4202 27.1641H75.3757V27.0805ZM80.0548 30.6745C80.0548 29.17 79.0771 26.3282 75.7249 26.3282H69.2998V27.0805H71.1156V42.8775H69.5792V43.6298H75.3757V42.8775H73.4901V35.188H75.4455C76.2137 35.188 76.8423 35.5223 77.0518 36.4417C77.1914 37.1104 77.2613 40.6208 77.401 41.2895C77.6105 42.2089 78.5184 43.797 80.1945 43.797C81.3817 43.797 81.7309 42.7104 81.9404 42.0417L81.3119 41.7074C81.1023 42.0417 81.1023 42.794 80.2643 42.794C79.9151 42.794 79.8453 42.5432 79.7754 42.2925C79.5659 41.3731 79.7056 39.0328 79.3564 37.6119C78.9374 36.0238 77.6803 34.8536 76.4232 34.7701C76.4931 34.7701 80.0548 33.3492 80.0548 30.6745Z" fill="#23252C"/>
<path d="M97.7238 27.0806H97.4444C97.0254 27.0806 96.8857 27.1642 96.6762 27.5821L93.2542 36.5254V42.794H95.07V43.5463H89.3433V42.794H90.9495L91.0194 36.191L88.2957 26.997H86.6895V26.2448H92.1368V26.997H90.5305L93.1145 35.6896H92.9748L95.7683 28.3343C95.9778 27.7492 96.2572 27.4985 96.1874 27.2477C96.1175 26.997 95.4191 26.997 94.9303 26.997H94.4414V26.2448H97.9333L97.7238 27.0806Z" fill="#23252C"/>
<path d="M163.858 43.63H152.404V42.8778H154.011L154.08 27.0807H152.265L152.334 26.3285H158.201V27.0807H156.525V42.8778H158.829C162.112 42.8778 163.369 41.1226 163.508 36.9434L164.137 37.1106L163.858 43.63Z" fill="#23252C"/>
<path d="M175.172 27.0808H173.426V42.8778H175.241L175.172 43.6301H169.515V42.8778H171.051V27.0808H169.235L169.305 26.4121H175.102L175.172 27.0808Z" fill="#23252C"/>
<path d="M191.166 27.0809C190.467 27.0809 190.328 27.0809 190.258 27.5824L186.696 43.5466H186.068L181.668 27.1645H180.062V26.4122H186.068V27.1645H183.833L186.906 38.6988L189.28 28.0839C189.35 27.8331 189.49 27.666 189.42 27.4152C189.35 27.0809 188.582 27.1645 187.953 27.1645V26.4122H191.096L191.166 27.0809Z" fill="#23252C"/>
<path d="M202.13 27.0809H200.384V42.8779H202.199V43.6302H196.473V42.8779H198.009V27.0809H196.193L196.263 26.4122H202.13V27.0809Z" fill="#23252C"/>
<path d="M221.194 27.0808H220.845C219.867 27.0808 219.658 27.3316 219.658 28.1674L219.727 43.2122L218.61 43.7973L209.811 27.6659V41.0391C209.811 41.6241 209.88 41.9585 209.88 42.2092C209.95 42.3764 210.09 42.7943 210.928 42.7943H211.626V43.5465H207.576V42.7943H208.274C209.322 42.7943 209.252 42.2092 209.182 38.7823V26.9972H207.366V26.245H211.487L219.029 39.9525V29.5047C219.029 28.7525 219.029 27.8331 218.959 27.4151C218.889 26.9972 218.61 26.9972 217.213 26.9137L217.283 26.245H221.264L221.194 27.0808Z" fill="#23252C"/>
<path d="M237.954 33.015H237.186C237.116 32.3464 237.046 31.6777 236.907 30.9255C236.139 27.8329 234.393 26.7464 232.297 26.7464C229.644 26.7464 228.736 28.8359 228.806 35.6061C228.875 42.627 229.923 43.2957 233.345 43.2957C235.161 43.2957 235.51 41.9584 235.58 41.5404L235.65 38.03H234.113V37.2778H239.63L239.7 38.03H238.234L238.164 40.8718C238.164 42.2927 235.231 44.0479 233.624 44.0479C230.132 44.0479 226.431 41.624 226.222 35.6897C226.082 30.3404 229.015 25.9941 232.367 25.9941C234.951 25.9941 236.208 27.6658 237.046 27.6658C237.535 27.6658 237.396 27.3315 237.465 26.6628L238.094 26.9135L237.954 33.015Z" fill="#23252C"/>
<path d="M108.267 1.00299H102.959V0H118.952V1.00299H113.645V43.7135H120.279C130.475 43.7135 133.618 42.1255 133.618 30.0896H134.456V44.7165H102.89V43.7135H108.197V1.00299H108.267Z" fill="#23252C"/>
<path d="M120.767 12.2864H116.717V11.2834H131.452V12.2864H126.145V54.997H132.779C142.975 54.997 146.118 53.4089 146.118 41.3731H146.956V56H115.39V54.997H120.697V12.2864H120.767Z" fill="#23252C"/>
</svg>
