<svg width="343" height="68" viewBox="0 0 343 68" fill="none" xmlns="http://www.w3.org/2000/svg">
    <path
        d="M16.8 52.3999H0.400012V51.5H2.70001L2.80001 32.6H0.200012L0.300013 31.7H8.70001V32.6H6.30001V51.5H9.60001C14.3 51.5 16.1 49.4 16.3 44.4L17.2 44.6L16.8 52.3999Z"
        fill="#231300" />
    <path
        d="M42.3 32.5999C40.9 32.5999 40.2 32.5999 40.2 33.7999L40.1 47.4999C40.1 50.3999 38.3 52.8999 33.2 52.8999C29.8 52.8999 25.6 51.2999 24.6 48.0999C24.3 47.0999 24.5 41.6999 24.5 40.9999V32.6999H21.7L21.8 31.7999H30.3V32.6999H27.8V41.3999C27.8 44.7999 27.8 47.8999 28.1 48.8999C28.7 51.0999 30.9 51.9999 33.1 51.9999C37 51.9999 39.1 50.4999 39.1 47.2999V35.9999C39.1 35.2999 39.1 33.6999 39 33.1999C38.8 32.6999 38.6 32.6999 37 32.6999H36L36.1 31.7999H42.2L42.3 32.5999Z"
        fill="#231300" />
    <path
        d="M64.1 32.8H63.7C62.8 32.8 62.4 32.9 62.1 33.5L58.3 41L63.3 51.5H65.2L65.3 52.4H57.7V51.5H60L56.4 43.9L53 49.4C52.8 49.8 52.3 50.8 52.3 51.1C52.4 51.4 52.7 51.5 53.4 51.5H54.3V52.4H48.4L48.3 51.5C50.4 51.5 50.7 51.5 51.3 50.3L55.7 42.8L50.8 32.9H48.4L48.5 32H56.1V32.9H54.2L57.6 40L60.3 34.5C60.4 34.2 60.8 33.6 60.7 33.3C60.5 32.7 59.9 32.8 59.3 32.8H58.3V31.9H64V32.8H64.1Z"
        fill="#231300" />
    <path
        d="M92.7 32.5999C91.3 32.5999 90.6 32.5999 90.6 33.7999L90.5 47.4999C90.5 50.3999 88.7 52.8999 83.6 52.8999C80.2 52.8999 76 51.2999 75 48.0999C74.7 47.0999 74.9 41.6999 74.9 40.9999V32.6999H72.1L72.2 31.7999H80.7V32.6999H78.2V41.3999C78.2 44.7999 78.2 47.8999 78.5 48.8999C79.1 51.0999 81.3 51.9999 83.5 51.9999C87.4 51.9999 89.5 50.4999 89.5 47.2999V35.9999C89.5 35.2999 89.5 33.6999 89.4 33.1999C89.2 32.6999 89 32.6999 87.4 32.6999H86.4L86.5 31.7999H92.6L92.7 32.5999Z"
        fill="#231300" />
    <path
        d="M107.7 32.6C110.9 32.6 111 35.1 111 37.1C111 39.3 110.2 41.4 108.1 41.4H105L104.9 32.7H107.7V32.6ZM114.4 36.9C114.4 35.1 113 31.7 108.2 31.7H99V32.6H101.6V51.5H99.4V52.3999H107.7V51.5H105V42.3H107.8C108.9 42.3 109.8 42.7 110.1 43.8C110.3 44.6 110.4 48.8 110.6 49.6C110.9 50.7 112.2 52.6 114.6 52.6C116.3 52.6 116.8 51.3 117.1 50.5L116.2 50.1C115.9 50.5 115.9 51.3999 114.7 51.3999C114.2 51.3999 114.1 51.1 114 50.8C113.7 49.7 113.9 46.9 113.4 45.2C112.8 43.3 111 41.9 109.2 41.8C109.3 41.8 114.4 40.1 114.4 36.9Z"
        fill="#231300" />
    <path
        d="M139.7 32.6H139.3C138.7 32.6 138.5 32.7 138.2 33.2L133.3 43.9V51.4H135.9V52.3H127.7V51.4H130L130.1 43.5L126.2 32.5H123.9V31.6H131.7V32.5H129.4L133.1 42.9H132.9L136.9 34.1C137.2 33.4 137.6 33.1 137.5 32.8C137.4 32.5 136.4 32.5 135.7 32.5H135V31.6H140L139.7 32.6Z"
        fill="#231300" />
    <path
        d="M234.4 52.3999H218V51.5H220.3L220.4 32.6H217.8L217.9 31.7H226.3V32.6H223.9V51.5H227.2C231.9 51.5 233.7 49.4 233.9 44.4L234.8 44.6L234.4 52.3999Z"
        fill="#231300" />
    <path
        d="M250.6 32.5999H248.1V51.4999H250.7L250.6 52.3999H242.5V51.4999H244.7V32.5999H242.1L242.2 31.7999H250.5L250.6 32.5999Z"
        fill="#231300" />
    <path
        d="M273.5 32.5999C272.5 32.5999 272.3 32.5999 272.2 33.1999L267.1 52.2999H266.2L259.9 32.6999H257.6V31.7999H266.2V32.6999H263L267.4 46.4999L270.8 33.7999C270.9 33.4999 271.1 33.2999 271 32.9999C270.9 32.5999 269.8 32.6999 268.9 32.6999V31.7999H273.4L273.5 32.5999Z"
        fill="#231300" />
    <path d="M289.2 32.5999H286.7V51.4999H289.3V52.3999H281.1V51.4999H283.3V32.5999H280.7L280.8 31.7999H289.2V32.5999Z"
        fill="#231300" />
    <path
        d="M316.5 32.6H316C314.6 32.6 314.3 32.9 314.3 33.9L314.4 51.9L312.8 52.6L300.2 33.3V49.3C300.2 50 300.3 50.4 300.3 50.7C300.4 50.9 300.6 51.4 301.8 51.4H302.8V52.3H297V51.4H298C299.5 51.4 299.4 50.7 299.3 46.6V32.5H296.7V31.6H302.6L313.4 48V35.5C313.4 34.6 313.4 33.5 313.3 33C313.2 32.5 312.8 32.5 310.8 32.4L310.9 31.6H316.6L316.5 32.6Z"
        fill="#231300" />
    <path
        d="M340.5 39.6999H339.4C339.3 38.8999 339.2 38.0999 339 37.1999C337.9 33.4999 335.4 32.1999 332.4 32.1999C328.6 32.1999 327.3 34.6999 327.4 42.7999C327.5 51.1999 329 51.9999 333.9 51.9999C336.5 51.9999 337 50.3999 337.1 49.8999L337.2 45.6999H335V44.7999H342.9L343 45.6999H340.9L340.8 49.0999C340.8 50.7999 336.6 52.8999 334.3 52.8999C329.3 52.8999 324 49.9999 323.7 42.8999C323.5 36.4999 327.7 31.2999 332.5 31.2999C336.2 31.2999 338 33.2999 339.2 33.2999C339.9 33.2999 339.7 32.8999 339.8 32.0999L340.7 32.3999L340.5 39.6999Z"
        fill="#231300" />
    <path
        d="M154.8 1.39996H147.2V0.199951H170.1V1.39996H162.5V52.5H172C186.6 52.5 191.1 50.6 191.1 36.2H192.3V53.7H147.1V52.5H154.7V1.39996H154.8Z"
        fill="#231300" />
    <path
        d="M172.7 14.9H166.9V13.7H188V14.9H180.4V66H189.9C204.5 66 209 64.1 209 49.7H210.2V67.2H165V66H172.6V14.9H172.7Z"
        fill="#231300" />
</svg>