<svg width="276" height="54" viewBox="0 0 276 54" fill="none" xmlns="http://www.w3.org/2000/svg">
    <path
        d="M13.3652 42.0718H0.161027V41.3464H2.01284L2.09335 26.1136H0L0.0805137 25.3882H6.84364V26.1136H4.91132V41.3464H7.56826C11.3524 41.3464 12.8016 39.6539 12.9627 35.624L13.6873 35.7852L13.3652 42.0718Z"
        fill="#23252C" />
    <path
        d="M33.8961 26.1136C32.7689 26.1136 32.2053 26.1136 32.2053 27.0808L32.1248 38.1226C32.1248 40.4599 30.6755 42.4748 26.5693 42.4748C23.8319 42.4748 20.4503 41.1853 19.6452 38.6062C19.4036 37.8002 19.5647 33.448 19.5647 32.8838V26.1942H17.3103L17.3908 25.4689H24.2345V26.1942H22.2216V33.2062C22.2216 35.9465 22.2216 38.445 22.4632 39.251C22.9462 41.0241 24.7175 41.7495 26.4888 41.7495C29.6289 41.7495 31.3196 40.5405 31.3196 37.9614V28.8539C31.3196 28.2898 31.3196 27.0002 31.2391 26.5972C31.0781 26.1942 30.9171 26.1942 29.6289 26.1942H28.8237L28.9042 25.4689H33.8156L33.8961 26.1136Z"
        fill="#23252C" />
    <path
        d="M51.4479 26.2747H51.1259C50.4013 26.2747 50.0792 26.3553 49.8377 26.8389L46.7782 32.8836L50.8038 41.3463H52.3336L52.4141 42.0717H46.2951V41.3463H48.1469L45.2484 35.221L42.5109 39.6538C42.3499 39.9762 41.9473 40.7822 41.9473 41.0239C42.0279 41.2657 42.2694 41.3463 42.833 41.3463H43.5576V42.0717H38.8073L38.7268 41.3463C40.4176 41.3463 40.6591 41.3463 41.1422 40.3792L44.6848 34.3344L40.7396 26.3553H38.8073L38.8878 25.6299H45.0069V26.3553H43.4771L46.2146 32.0777L48.3884 27.6448C48.4689 27.403 48.791 26.9195 48.7105 26.6777C48.5494 26.1941 48.0664 26.2747 47.5833 26.2747H46.7782V25.5493H51.3674V26.2747H51.4479Z"
        fill="#23252C" />
    <path
        d="M74.4748 26.1136C73.3476 26.1136 72.784 26.1136 72.784 27.0808L72.7035 38.1226C72.7035 40.4599 71.2543 42.4748 67.1481 42.4748C64.4106 42.4748 61.0291 41.1853 60.2239 38.6062C59.9824 37.8002 60.1434 33.448 60.1434 32.8838V26.1942H57.889L57.9696 25.4689H64.8132V26.1942H62.8004V33.2062C62.8004 35.9465 62.8004 38.445 63.0419 39.251C63.525 41.0241 65.2963 41.7495 67.0676 41.7495C70.2076 41.7495 71.8984 40.5405 71.8984 37.9614V28.8539C71.8984 28.2898 71.8984 27.0002 71.8179 26.5972C71.6568 26.1942 71.4958 26.1942 70.2076 26.1942H69.4025L69.483 25.4689H74.3943L74.4748 26.1136Z"
        fill="#23252C" />
    <path
        d="M86.5519 26.1136C89.1283 26.1136 89.2089 28.1285 89.2089 29.7404C89.2089 31.5136 88.5647 33.2061 86.874 33.2061H84.378L84.2975 26.1942H86.5519V26.1136ZM91.9463 29.5792C91.9463 28.1285 90.8191 25.3882 86.9545 25.3882H79.5472V26.1136H81.6406V41.3464H79.8693V42.0718H86.5519V41.3464H84.378V33.9315H86.6324C87.5181 33.9315 88.2427 34.2539 88.4842 35.1404C88.6453 35.7852 88.7258 39.1703 88.8868 39.8151C89.1283 40.7016 90.175 42.233 92.1073 42.233C93.4761 42.233 93.8786 41.1852 94.1202 40.5404L93.3955 40.218C93.154 40.5404 93.154 41.2658 92.1878 41.2658C91.7853 41.2658 91.7048 41.024 91.6243 40.7822C91.3827 39.8957 91.5437 37.6389 91.1412 36.2688C90.6581 34.7374 89.2088 33.6091 87.7596 33.5285C87.8401 33.5285 91.9463 32.1583 91.9463 29.5792Z"
        fill="#23252C" />
    <path
        d="M112.316 26.1135H111.994C111.511 26.1135 111.35 26.1941 111.109 26.597L107.163 35.2209V41.2657H109.257V41.9911H102.655V41.2657H104.506L104.587 34.8985L101.447 26.0329H99.5951V25.3075H105.875V26.0329H104.023L107.002 34.415H106.841L110.062 27.3224C110.303 26.7582 110.625 26.5165 110.545 26.2747C110.464 26.0329 109.659 26.0329 109.096 26.0329H108.532V25.3075H112.558L112.316 26.1135Z"
        fill="#23252C" />
    <path
        d="M188.562 42.0716H175.358V41.3463H177.21L177.29 26.1134H175.197L175.278 25.3881H182.041V26.1134H180.108V41.3463H182.765C186.55 41.3463 187.999 39.6537 188.16 35.6239L188.884 35.7851L188.562 42.0716Z"
        fill="#23252C" />
    <path
        d="M201.606 26.1134H199.593V41.3462H201.686L201.606 42.0716H195.084V41.3462H196.855V26.1134H194.762L194.843 25.4686H201.525L201.606 26.1134Z"
        fill="#23252C" />
    <path
        d="M220.043 26.1134C219.238 26.1134 219.077 26.1134 218.997 26.597L214.89 41.991H214.166L209.093 26.194H207.242V25.4686H214.166V26.194H211.589L215.132 37.3164L217.869 27.0806C217.95 26.8388 218.111 26.6776 218.03 26.4358C217.95 26.1134 217.064 26.194 216.34 26.194V25.4686H219.963L220.043 26.1134Z"
        fill="#23252C" />
    <path
        d="M232.684 26.1134H230.671V41.3462H232.764V42.0716H226.162V41.3462H227.934V26.1134H225.84L225.921 25.4686H232.684V26.1134Z"
        fill="#23252C" />
    <path
        d="M254.664 26.1135H254.261C253.134 26.1135 252.893 26.3553 252.893 27.1612L252.973 41.6687L251.685 42.2329L241.54 26.6776V39.5732C241.54 40.1374 241.621 40.4597 241.621 40.7015C241.701 40.8627 241.862 41.2657 242.828 41.2657H243.634V41.9911H238.964V41.2657H239.769C240.977 41.2657 240.896 40.7015 240.816 37.397V26.0329H238.722V25.3075H243.473L252.168 38.5254V28.4508C252.168 27.7254 252.168 26.8388 252.087 26.4359C252.007 26.0329 251.685 26.0329 250.075 25.9523L250.155 25.3075H254.744L254.664 26.1135Z"
        fill="#23252C" />
    <path
        d="M273.987 31.8358H273.102C273.021 31.191 272.941 30.5463 272.78 29.8209C271.894 26.8388 269.881 25.791 267.466 25.791C264.406 25.791 263.359 27.806 263.44 34.3343C263.52 41.1045 264.728 41.7493 268.673 41.7493C270.767 41.7493 271.169 40.4597 271.25 40.0567L271.33 36.6716H269.559V35.9463H275.92L276 36.6716H274.309L274.229 39.4119C274.229 40.7821 270.847 42.4746 268.995 42.4746C264.97 42.4746 260.703 40.1373 260.461 34.4149C260.3 29.2567 263.681 25.0657 267.546 25.0657C270.525 25.0657 271.974 26.6776 272.941 26.6776C273.504 26.6776 273.343 26.3552 273.424 25.7104L274.148 25.9522L273.987 31.8358Z"
        fill="#23252C" />
    <path
        d="M124.474 0.967168H118.355V0H136.792V0.967168H130.673V42.1522H138.322C150.077 42.1522 153.7 40.6209 153.7 29.0149H154.666V43.1194H118.274V42.1522H124.393V0.967168H124.474Z"
        fill="#23252C" />
    <path
        d="M138.886 11.8478H134.216V10.8806H151.204V11.8478H145.085V53.0329H152.734C164.489 53.0329 168.112 51.5015 168.112 39.8955H169.078V54H132.686V53.0329H138.805V11.8478H138.886Z"
        fill="#23252C" />
</svg>