<svg width="80" height="80" viewBox="0 0 80 80" fill="none" xmlns="http://www.w3.org/2000/svg">
<g filter="url(#filter0_d_269_37709)">
<circle cx="40" cy="36" r="28" fill="white"/>
</g>
<path d="M28.7998 34.631C28.0437 34.631 27.4308 35.2439 27.4308 36C27.4308 36.7561 28.0437 37.369 28.7998 37.369V34.631ZM53.5679 36.9681C54.1025 36.4334 54.1025 35.5666 53.5679 35.0319L44.8554 26.3195C44.3207 25.7848 43.4539 25.7848 42.9193 26.3195C42.3846 26.8541 42.3846 27.7209 42.9193 28.2556L50.6637 36L42.9193 43.7444C42.3846 44.2791 42.3846 45.1459 42.9193 45.6805C43.4539 46.2152 44.3207 46.2152 44.8554 45.6805L53.5679 36.9681ZM28.7998 37.369H52.5998V34.631H28.7998V37.369Z" fill="#667085"/>
<defs>
<filter id="filter0_d_269_37709" x="0" y="0" width="80" height="80" filterUnits="userSpaceOnUse" color-interpolation-filters="sRGB">
<feFlood flood-opacity="0" result="BackgroundImageFix"/>
<feColorMatrix in="SourceAlpha" type="matrix" values="0 0 0 0 0 0 0 0 0 0 0 0 0 0 0 0 0 0 127 0" result="hardAlpha"/>
<feOffset dy="4"/>
<feGaussianBlur stdDeviation="6"/>
<feComposite in2="hardAlpha" operator="out"/>
<feColorMatrix type="matrix" values="0 0 0 0 0.0941176 0 0 0 0 0.109804 0 0 0 0 0.160784 0 0 0 0.15 0"/>
<feBlend mode="normal" in2="BackgroundImageFix" result="effect1_dropShadow_269_37709"/>
<feBlend mode="normal" in="SourceGraphic" in2="effect1_dropShadow_269_37709" result="shape"/>
</filter>
</defs>
</svg>
