<svg viewBox="0 0 24 24" fill="none" xmlns="http://www.w3.org/2000/svg">
    <path fill-rule="evenodd" clip-rule="evenodd"
        d="M21.6094 3H15.2581L13.8795 7.84119L14.3644 8.25817L17.2271 10.7202C16.7265 11.5777 16.2187 12.3194 14.712 14.0196C13.2804 15.635 11.9849 16.5312 10.7621 17.2305L7.8994 13.8793L2.555 15.2199V21.6486L3.69263 21.4905L3.69746 21.4898L3.7077 21.4883L3.74403 21.4831C3.77516 21.4784 3.81996 21.4717 3.87739 21.4626C3.99222 21.4445 4.15769 21.4173 4.36548 21.3801C4.78077 21.3057 5.3667 21.191 6.05637 21.0289C7.42881 20.7061 9.24294 20.188 10.9469 19.4096L10.9761 19.3963L11.0044 19.3811C12.5394 18.5571 14.2813 17.521 16.2087 15.3462C18.1368 13.1706 18.5744 12.4008 19.2795 11.1605C19.3103 11.1062 19.3416 11.0511 19.3737 10.9949C20.2464 9.46236 20.772 7.73294 21.0797 6.4171C21.235 5.75328 21.3378 5.18138 21.402 4.77346C21.4342 4.56926 21.4568 4.40548 21.4715 4.29107C21.4789 4.23384 21.4843 4.1889 21.4879 4.15737L21.4922 4.12024L21.4933 4.10947L21.4937 4.10607L21.4938 4.10487L21.6094 3ZM19.3339 5C19.2814 5.28269 19.215 5.60781 19.1323 5.96169C18.9237 6.85369 18.6175 7.90076 18.1824 8.90383L16.1533 7.15881L16.7681 5H19.3339ZM4.555 19.3087V16.7801L7.18377 16.1207L8.87656 18.1024C7.71828 18.5357 6.55862 18.8562 5.59851 19.082C5.21077 19.1732 4.8583 19.2483 4.555 19.3087Z"
        fill="#BEC0C6" />
</svg>