<svg width="32" height="32" viewBox="0 0 32 32" fill="none" xmlns="http://www.w3.org/2000/svg">
    <path fill-rule="evenodd" clip-rule="evenodd"
        d="M25.333 14.6668H17.333V6.66683C17.333 5.9295 16.7357 5.3335 15.9997 5.3335C15.2637 5.3335 14.6663 5.9295 14.6663 6.66683V14.6668H6.66634C5.93034 14.6668 5.33301 15.2628 5.33301 16.0002C5.33301 16.7375 5.93034 17.3335 6.66634 17.3335H14.6663V25.3335C14.6663 26.0708 15.2637 26.6668 15.9997 26.6668C16.7357 26.6668 17.333 26.0708 17.333 25.3335V17.3335H25.333C26.069 17.3335 26.6663 16.7375 26.6663 16.0002C26.6663 15.2628 26.069 14.6668 25.333 14.6668Z"
        fill="#F27502" />
</svg>