<svg viewBox="0 0 24 24" fill="none" xmlns="http://www.w3.org/2000/svg">
    <path fill-rule="evenodd" clip-rule="evenodd"
        d="M11.1227 15.2104C13.9326 15.2104 16.2104 12.9326 16.2104 10.1227C16.2104 7.31288 13.9326 5.03506 11.1227 5.03506C8.31288 5.03506 6.03506 7.31288 6.03506 10.1227C6.03506 12.9326 8.31288 15.2104 11.1227 15.2104ZM11.1227 17.2454C15.0565 17.2454 18.2454 14.0565 18.2454 10.1227C18.2454 6.18895 15.0565 3 11.1227 3C7.18895 3 4 6.18895 4 10.1227C4 14.0565 7.18895 17.2454 11.1227 17.2454Z"
        fill="#667085" />
    <path fill-rule="evenodd" clip-rule="evenodd"
        d="M15.7965 13.4733L20.4736 18.1505L19.1507 19.4733L14.4736 14.7962L15.7965 13.4733Z" fill="#667085" />
</svg>