<svg width="24" height="25" viewBox="0 0 24 25" fill="none" xmlns="http://www.w3.org/2000/svg">
<path d="M12 1.00439C5.90854 1.00439 0.959961 5.95297 0.959961 12.0444C0.959961 14.0024 1.49693 15.8296 2.39246 17.4247L0.977773 22.475C0.955172 22.5558 0.954151 22.6412 0.974812 22.7225C0.995472 22.8038 1.03709 22.8783 1.09552 22.9386C1.15395 22.9988 1.22715 23.0427 1.30782 23.0658C1.38849 23.0889 1.47381 23.0905 1.55527 23.0703L6.82121 21.7653C8.36858 22.5914 10.1244 23.0844 12 23.0844C18.0914 23.0844 23.04 18.1358 23.04 12.0444C23.04 5.95297 18.0914 1.00439 12 1.00439ZM12 1.96439C17.5725 1.96439 22.08 6.47182 22.08 12.0444C22.08 17.617 17.5725 22.1244 12 22.1244C10.2134 22.1244 8.54018 21.6586 7.08559 20.8447C6.9792 20.7853 6.85419 20.7685 6.7359 20.7978L2.12434 21.9406L3.3609 17.5288C3.37859 17.4664 3.38348 17.4011 3.37526 17.3368C3.36704 17.2726 3.34589 17.2106 3.31309 17.1547C2.42909 15.6557 1.91996 13.9116 1.91996 12.0444C1.91996 6.47182 6.42738 1.96439 12 1.96439ZM7.9884 6.28439C7.6807 6.28439 7.24126 6.39887 6.88027 6.78783C6.66345 7.02146 5.75996 7.90176 5.75996 9.44939C5.75996 11.0629 6.87903 12.4552 7.01434 12.6341H7.01527V12.635C7.00244 12.6182 7.18702 12.8854 7.4334 13.206C7.67978 13.5265 8.02431 13.9474 8.45715 14.4031C9.32281 15.3146 10.5399 16.368 12.0506 17.0122C12.7463 17.3084 13.2951 17.4873 13.7109 17.6178C14.4815 17.8598 15.1834 17.823 15.7106 17.7453C16.1052 17.6872 16.5393 17.4977 16.9687 17.226C17.3982 16.9542 17.819 16.6163 18.0046 16.1028C18.1376 15.7348 18.2052 15.3946 18.2296 15.1147C18.2419 14.9748 18.2434 14.8512 18.2343 14.7369C18.2252 14.6225 18.235 14.535 18.1284 14.36C17.9049 13.9931 17.6518 13.9835 17.3878 13.8528C17.2411 13.7802 16.8233 13.5762 16.4043 13.3766C15.9858 13.1772 15.6234 13.0005 15.4003 12.921C15.2593 12.8702 15.0871 12.7972 14.8387 12.8253C14.5903 12.8535 14.345 13.0327 14.2021 13.2444C14.0668 13.4451 13.5217 14.0884 13.3556 14.2775C13.3534 14.2762 13.3678 14.2828 13.3021 14.2503C13.0966 14.1486 12.8453 14.0621 12.4734 13.866C12.1015 13.6698 11.6362 13.3801 11.1271 12.9313V12.9303C10.3694 12.2632 9.83865 11.4257 9.67121 11.1444C9.68249 11.131 9.66987 11.1472 9.69371 11.1238L9.69465 11.1228C9.86578 10.9543 10.0174 10.753 10.1456 10.6053C10.3273 10.396 10.4075 10.2115 10.4943 10.0391C10.6675 9.69549 10.5711 9.31739 10.4709 9.11846V9.11752C10.4778 9.13128 10.4167 8.99647 10.3509 8.84096C10.2849 8.685 10.2008 8.48281 10.1109 8.26721C9.93118 7.836 9.73053 7.35235 9.61121 7.06908V7.06814C9.47064 6.73448 9.28047 6.49411 9.03184 6.37814C8.7832 6.26218 8.56353 6.29515 8.55465 6.29471H8.55371C8.37628 6.28652 8.18158 6.28439 7.9884 6.28439ZM7.9884 7.24439C8.17346 7.24439 8.3559 7.24665 8.50871 7.25377C8.66591 7.2616 8.65613 7.26225 8.6259 7.24814C8.59518 7.23382 8.63686 7.22917 8.72621 7.44127C8.84305 7.71864 9.04468 8.20403 9.22496 8.63658C9.3151 8.85286 9.39946 9.05583 9.46684 9.21502C9.53421 9.37421 9.57072 9.4631 9.61309 9.54783V9.54877L9.61402 9.54971C9.65556 9.63167 9.65189 9.57919 9.63746 9.60783C9.53617 9.80887 9.52242 9.85823 9.41996 9.97627C9.26395 10.156 9.10482 10.3564 9.02059 10.4394C8.94689 10.5118 8.81392 10.6246 8.7309 10.8453C8.64775 11.0664 8.68656 11.3698 8.81996 11.5963C8.99758 11.8978 9.58288 12.8505 10.4925 13.6513C11.0653 14.1562 11.599 14.4904 12.0253 14.7153C12.4516 14.9402 12.7988 15.0716 12.8765 15.11C13.061 15.2013 13.2627 15.2722 13.4971 15.2441C13.7316 15.2159 13.9338 15.0737 14.0625 14.9281L14.0634 14.9272C14.2347 14.733 14.7436 14.1519 14.9878 13.7938C14.9981 13.7974 14.9947 13.7946 15.0759 13.8238V13.8247H15.0768C15.1139 13.8379 15.578 14.0456 15.9918 14.2428C16.4057 14.44 16.8257 14.645 16.9621 14.7125C17.1591 14.81 17.2522 14.8735 17.2762 14.8738C17.2778 14.916 17.2795 14.9618 17.2734 15.0313C17.2566 15.2241 17.205 15.4909 17.1018 15.7766C17.0513 15.9164 16.788 16.2049 16.4559 16.415C16.1238 16.6252 15.7196 16.7736 15.57 16.7956C15.1199 16.862 14.5856 16.8862 13.9987 16.7019C13.5918 16.5742 13.0844 16.4088 12.4275 16.1291C11.0951 15.5609 9.96264 14.5939 9.15371 13.7422C8.74924 13.3163 8.42519 12.9199 8.19465 12.62C7.96454 12.3207 7.86405 12.1649 7.78027 12.0547L7.77934 12.0538C7.63062 11.8571 6.71996 10.5904 6.71996 9.44939C6.71996 8.24183 7.28084 7.76828 7.58434 7.44127C7.74367 7.26959 7.91786 7.24439 7.9884 7.24439Z" fill="#667085"/>
</svg>
